<mxfile host="app.diagrams.net" modified="2024-01-02T06:54:13.909Z" agent="Mozilla/5.0 (Windows NT 10.0; Win64; x64) AppleWebKit/537.36 (KHTML, like Gecko) Chrome/120.0.0.0 Safari/537.36 Edg/120.0.0.0" etag="ImbAdTkbqWqLnwfWSnzx" version="22.1.16" type="onedrive">
  <diagram name="第 1 页" id="tu66tJ_88YXGRR922lzK">
    <mxGraphModel grid="0" page="0" gridSize="10" guides="1" tooltips="1" connect="1" arrows="1" fold="1" pageScale="1" pageWidth="20000" pageHeight="40000" math="0" shadow="0">
      <root>
        <mxCell id="0" />
        <mxCell id="1" parent="0" />
        <mxCell id="Y_ASWiNpWEzHy-c_jcjg-1" value="试卷" style="rounded=0;whiteSpace=wrap;html=1;strokeColor=default;strokeWidth=1;align=center;verticalAlign=middle;fontFamily=Helvetica;fontSize=20;fontColor=default;fillColor=default;" vertex="1" parent="1">
          <mxGeometry x="658.0000000000005" y="119" width="120" height="60" as="geometry" />
        </mxCell>
        <mxCell id="Y_ASWiNpWEzHy-c_jcjg-16" style="edgeStyle=none;shape=connector;rounded=0;orthogonalLoop=1;jettySize=auto;html=1;exitX=1;exitY=0.5;exitDx=0;exitDy=0;entryX=0;entryY=0.5;entryDx=0;entryDy=0;labelBackgroundColor=default;strokeColor=default;strokeWidth=2;align=center;verticalAlign=middle;fontFamily=Helvetica;fontSize=20;fontColor=default;endArrow=none;endFill=0;" edge="1" parent="1" source="Y_ASWiNpWEzHy-c_jcjg-2" target="Y_ASWiNpWEzHy-c_jcjg-11">
          <mxGeometry relative="1" as="geometry" />
        </mxCell>
        <mxCell id="Y_ASWiNpWEzHy-c_jcjg-2" value="班级" style="rounded=0;whiteSpace=wrap;html=1;strokeColor=default;strokeWidth=1;align=center;verticalAlign=middle;fontFamily=Helvetica;fontSize=20;fontColor=default;fillColor=default;" vertex="1" parent="1">
          <mxGeometry x="623.0000000000005" y="448" width="120" height="60" as="geometry" />
        </mxCell>
        <mxCell id="Y_ASWiNpWEzHy-c_jcjg-18" style="edgeStyle=none;shape=connector;rounded=0;orthogonalLoop=1;jettySize=auto;html=1;exitX=0.5;exitY=0;exitDx=0;exitDy=0;entryX=1;entryY=0.5;entryDx=0;entryDy=0;labelBackgroundColor=default;strokeColor=default;strokeWidth=2;align=center;verticalAlign=middle;fontFamily=Helvetica;fontSize=20;fontColor=default;endArrow=none;endFill=0;" edge="1" parent="1" source="Y_ASWiNpWEzHy-c_jcjg-3" target="Y_ASWiNpWEzHy-c_jcjg-10">
          <mxGeometry relative="1" as="geometry" />
        </mxCell>
        <mxCell id="Y_ASWiNpWEzHy-c_jcjg-3" value="学生" style="rounded=0;whiteSpace=wrap;html=1;strokeColor=default;strokeWidth=1;align=center;verticalAlign=middle;fontFamily=Helvetica;fontSize=20;fontColor=default;fillColor=default;" vertex="1" parent="1">
          <mxGeometry x="936.0000000000005" y="308" width="120" height="60" as="geometry" />
        </mxCell>
        <mxCell id="Y_ASWiNpWEzHy-c_jcjg-14" style="edgeStyle=none;shape=connector;rounded=0;orthogonalLoop=1;jettySize=auto;html=1;exitX=1;exitY=0.5;exitDx=0;exitDy=0;entryX=0;entryY=0.5;entryDx=0;entryDy=0;labelBackgroundColor=default;strokeColor=default;strokeWidth=2;align=center;verticalAlign=middle;fontFamily=Helvetica;fontSize=20;fontColor=default;endArrow=none;endFill=0;" edge="1" parent="1" source="Y_ASWiNpWEzHy-c_jcjg-4" target="Y_ASWiNpWEzHy-c_jcjg-9">
          <mxGeometry relative="1" as="geometry" />
        </mxCell>
        <mxCell id="Y_ASWiNpWEzHy-c_jcjg-4" value="教师" style="rounded=0;whiteSpace=wrap;html=1;strokeColor=default;strokeWidth=1;align=center;verticalAlign=middle;fontFamily=Helvetica;fontSize=20;fontColor=default;fillColor=default;" vertex="1" parent="1">
          <mxGeometry x="203.50000000000045" y="440" width="120" height="60" as="geometry" />
        </mxCell>
        <mxCell id="Y_ASWiNpWEzHy-c_jcjg-12" style="rounded=0;orthogonalLoop=1;jettySize=auto;html=1;exitX=0.5;exitY=1;exitDx=0;exitDy=0;entryX=0.5;entryY=0;entryDx=0;entryDy=0;strokeWidth=2;endArrow=none;endFill=0;fontSize=20;" edge="1" parent="1" source="Y_ASWiNpWEzHy-c_jcjg-5" target="Y_ASWiNpWEzHy-c_jcjg-7">
          <mxGeometry relative="1" as="geometry" />
        </mxCell>
        <mxCell id="Y_ASWiNpWEzHy-c_jcjg-20" style="edgeStyle=none;shape=connector;rounded=0;orthogonalLoop=1;jettySize=auto;html=1;exitX=1;exitY=0.5;exitDx=0;exitDy=0;entryX=0;entryY=0.5;entryDx=0;entryDy=0;labelBackgroundColor=default;strokeColor=default;strokeWidth=2;align=center;verticalAlign=middle;fontFamily=Helvetica;fontSize=20;fontColor=default;endArrow=none;endFill=0;" edge="1" parent="1" source="Y_ASWiNpWEzHy-c_jcjg-5" target="Y_ASWiNpWEzHy-c_jcjg-8">
          <mxGeometry relative="1" as="geometry" />
        </mxCell>
        <mxCell id="Y_ASWiNpWEzHy-c_jcjg-5" value="试题" style="rounded=0;whiteSpace=wrap;html=1;strokeColor=default;strokeWidth=1;align=center;verticalAlign=middle;fontFamily=Helvetica;fontSize=20;fontColor=default;fillColor=default;" vertex="1" parent="1">
          <mxGeometry x="207.00000000000045" y="119" width="120" height="60" as="geometry" />
        </mxCell>
        <mxCell id="Y_ASWiNpWEzHy-c_jcjg-13" style="edgeStyle=none;shape=connector;rounded=0;orthogonalLoop=1;jettySize=auto;html=1;exitX=0.5;exitY=1;exitDx=0;exitDy=0;entryX=0.5;entryY=0;entryDx=0;entryDy=0;labelBackgroundColor=default;strokeColor=default;strokeWidth=2;align=center;verticalAlign=middle;fontFamily=Helvetica;fontSize=20;fontColor=default;endArrow=none;endFill=0;" edge="1" parent="1" source="Y_ASWiNpWEzHy-c_jcjg-7" target="Y_ASWiNpWEzHy-c_jcjg-4">
          <mxGeometry relative="1" as="geometry" />
        </mxCell>
        <mxCell id="Y_ASWiNpWEzHy-c_jcjg-7" value="创建" style="rhombus;whiteSpace=wrap;html=1;fontSize=20;" vertex="1" parent="1">
          <mxGeometry x="215" y="288" width="97" height="58" as="geometry" />
        </mxCell>
        <mxCell id="Y_ASWiNpWEzHy-c_jcjg-21" style="edgeStyle=none;shape=connector;rounded=0;orthogonalLoop=1;jettySize=auto;html=1;exitX=1;exitY=0.5;exitDx=0;exitDy=0;entryX=0;entryY=0.5;entryDx=0;entryDy=0;labelBackgroundColor=default;strokeColor=default;strokeWidth=2;align=center;verticalAlign=middle;fontFamily=Helvetica;fontSize=20;fontColor=default;endArrow=none;endFill=0;" edge="1" parent="1" source="Y_ASWiNpWEzHy-c_jcjg-8" target="Y_ASWiNpWEzHy-c_jcjg-1">
          <mxGeometry relative="1" as="geometry" />
        </mxCell>
        <mxCell id="Y_ASWiNpWEzHy-c_jcjg-8" value="创建" style="rhombus;whiteSpace=wrap;html=1;fontSize=20;" vertex="1" parent="1">
          <mxGeometry x="444" y="119" width="97" height="58" as="geometry" />
        </mxCell>
        <mxCell id="Y_ASWiNpWEzHy-c_jcjg-15" style="edgeStyle=none;shape=connector;rounded=0;orthogonalLoop=1;jettySize=auto;html=1;exitX=1;exitY=0.5;exitDx=0;exitDy=0;entryX=0;entryY=0.5;entryDx=0;entryDy=0;labelBackgroundColor=default;strokeColor=default;strokeWidth=2;align=center;verticalAlign=middle;fontFamily=Helvetica;fontSize=20;fontColor=default;endArrow=none;endFill=0;" edge="1" parent="1" source="Y_ASWiNpWEzHy-c_jcjg-9" target="Y_ASWiNpWEzHy-c_jcjg-2">
          <mxGeometry relative="1" as="geometry" />
        </mxCell>
        <mxCell id="Y_ASWiNpWEzHy-c_jcjg-9" value="创建" style="rhombus;whiteSpace=wrap;html=1;fontSize=20;" vertex="1" parent="1">
          <mxGeometry x="437" y="448" width="97" height="58" as="geometry" />
        </mxCell>
        <mxCell id="Y_ASWiNpWEzHy-c_jcjg-19" style="edgeStyle=none;shape=connector;rounded=0;orthogonalLoop=1;jettySize=auto;html=1;exitX=0;exitY=0.5;exitDx=0;exitDy=0;entryX=1;entryY=0.5;entryDx=0;entryDy=0;labelBackgroundColor=default;strokeColor=default;strokeWidth=2;align=center;verticalAlign=middle;fontFamily=Helvetica;fontSize=20;fontColor=default;endArrow=none;endFill=0;" edge="1" parent="1" source="Y_ASWiNpWEzHy-c_jcjg-10" target="Y_ASWiNpWEzHy-c_jcjg-1">
          <mxGeometry relative="1" as="geometry" />
        </mxCell>
        <mxCell id="Y_ASWiNpWEzHy-c_jcjg-10" value="创建" style="rhombus;whiteSpace=wrap;html=1;fontSize=20;" vertex="1" parent="1">
          <mxGeometry x="836" y="229" width="97" height="58" as="geometry" />
        </mxCell>
        <mxCell id="Y_ASWiNpWEzHy-c_jcjg-17" style="edgeStyle=none;shape=connector;rounded=0;orthogonalLoop=1;jettySize=auto;html=1;exitX=1;exitY=0.5;exitDx=0;exitDy=0;entryX=0.5;entryY=1;entryDx=0;entryDy=0;labelBackgroundColor=default;strokeColor=default;strokeWidth=2;align=center;verticalAlign=middle;fontFamily=Helvetica;fontSize=20;fontColor=default;endArrow=none;endFill=0;" edge="1" parent="1" source="Y_ASWiNpWEzHy-c_jcjg-11" target="Y_ASWiNpWEzHy-c_jcjg-3">
          <mxGeometry relative="1" as="geometry" />
        </mxCell>
        <mxCell id="Y_ASWiNpWEzHy-c_jcjg-11" value="创建" style="rhombus;whiteSpace=wrap;html=1;fontSize=20;" vertex="1" parent="1">
          <mxGeometry x="853" y="440" width="97" height="58" as="geometry" />
        </mxCell>
        <mxCell id="Y_ASWiNpWEzHy-c_jcjg-26" value="1" style="text;html=1;align=center;verticalAlign=middle;resizable=0;points=[];autosize=1;strokeColor=none;fillColor=none;fontSize=20;fontFamily=Helvetica;fontColor=default;" vertex="1" parent="1">
          <mxGeometry x="220" y="363" width="29" height="36" as="geometry" />
        </mxCell>
        <mxCell id="Y_ASWiNpWEzHy-c_jcjg-27" value="1" style="text;html=1;align=center;verticalAlign=middle;resizable=0;points=[];autosize=1;strokeColor=none;fillColor=none;fontSize=20;fontFamily=Helvetica;fontColor=default;" vertex="1" parent="1">
          <mxGeometry x="370" y="427" width="29" height="36" as="geometry" />
        </mxCell>
        <mxCell id="Y_ASWiNpWEzHy-c_jcjg-28" value="n" style="text;html=1;align=center;verticalAlign=middle;resizable=0;points=[];autosize=1;strokeColor=none;fillColor=none;fontSize=20;fontFamily=Helvetica;fontColor=default;" vertex="1" parent="1">
          <mxGeometry x="816" y="150" width="29" height="36" as="geometry" />
        </mxCell>
        <mxCell id="Y_ASWiNpWEzHy-c_jcjg-29" value="n" style="text;html=1;align=center;verticalAlign=middle;resizable=0;points=[];autosize=1;strokeColor=none;fillColor=none;fontSize=20;fontFamily=Helvetica;fontColor=default;" vertex="1" parent="1">
          <mxGeometry x="229" y="216" width="29" height="36" as="geometry" />
        </mxCell>
        <mxCell id="Y_ASWiNpWEzHy-c_jcjg-30" value="n" style="text;html=1;align=center;verticalAlign=middle;resizable=0;points=[];autosize=1;strokeColor=none;fillColor=none;fontSize=20;fontFamily=Helvetica;fontColor=default;" vertex="1" parent="1">
          <mxGeometry x="381" y="101" width="29" height="36" as="geometry" />
        </mxCell>
        <mxCell id="Y_ASWiNpWEzHy-c_jcjg-32" value="m" style="text;html=1;align=center;verticalAlign=middle;resizable=0;points=[];autosize=1;strokeColor=none;fillColor=none;fontSize=20;fontFamily=Helvetica;fontColor=default;" vertex="1" parent="1">
          <mxGeometry x="571" y="99" width="35" height="36" as="geometry" />
        </mxCell>
        <mxCell id="Y_ASWiNpWEzHy-c_jcjg-33" value="n" style="text;html=1;align=center;verticalAlign=middle;resizable=0;points=[];autosize=1;strokeColor=none;fillColor=none;fontSize=20;fontFamily=Helvetica;fontColor=default;" vertex="1" parent="1">
          <mxGeometry x="558" y="430" width="29" height="36" as="geometry" />
        </mxCell>
        <mxCell id="Y_ASWiNpWEzHy-c_jcjg-34" value="1" style="text;html=1;align=center;verticalAlign=middle;resizable=0;points=[];autosize=1;strokeColor=none;fillColor=none;fontSize=20;fontFamily=Helvetica;fontColor=default;" vertex="1" parent="1">
          <mxGeometry x="774" y="422" width="29" height="36" as="geometry" />
        </mxCell>
        <mxCell id="Y_ASWiNpWEzHy-c_jcjg-36" value="n" style="text;html=1;align=center;verticalAlign=middle;resizable=0;points=[];autosize=1;strokeColor=none;fillColor=none;fontSize=20;fontFamily=Helvetica;fontColor=default;" vertex="1" parent="1">
          <mxGeometry x="933" y="399" width="29" height="36" as="geometry" />
        </mxCell>
        <mxCell id="Y_ASWiNpWEzHy-c_jcjg-37" value="1" style="text;html=1;align=center;verticalAlign=middle;resizable=0;points=[];autosize=1;strokeColor=none;fillColor=none;fontSize=20;fontFamily=Helvetica;fontColor=default;" vertex="1" parent="1">
          <mxGeometry x="979" y="240" width="29" height="36" as="geometry" />
        </mxCell>
        <mxCell id="Y_ASWiNpWEzHy-c_jcjg-38" value="试卷作者" style="ellipse;whiteSpace=wrap;html=1;fontFamily=Helvetica;fontSize=20;fontColor=default;" vertex="1" parent="1">
          <mxGeometry x="811" y="35" width="84" height="66" as="geometry" />
        </mxCell>
        <mxCell id="Y_ASWiNpWEzHy-c_jcjg-64" style="edgeStyle=none;shape=connector;rounded=0;orthogonalLoop=1;jettySize=auto;html=1;exitX=1;exitY=1;exitDx=0;exitDy=0;entryX=0;entryY=0;entryDx=0;entryDy=0;labelBackgroundColor=default;strokeColor=default;strokeWidth=2;align=center;verticalAlign=middle;fontFamily=Helvetica;fontSize=20;fontColor=default;endArrow=none;endFill=0;" edge="1" parent="1" source="Y_ASWiNpWEzHy-c_jcjg-39" target="Y_ASWiNpWEzHy-c_jcjg-1">
          <mxGeometry relative="1" as="geometry" />
        </mxCell>
        <mxCell id="Y_ASWiNpWEzHy-c_jcjg-39" value="试卷ID" style="ellipse;whiteSpace=wrap;html=1;fontFamily=Helvetica;fontSize=20;fontColor=default;" vertex="1" parent="1">
          <mxGeometry x="514" y="6" width="84" height="66" as="geometry" />
        </mxCell>
        <mxCell id="Y_ASWiNpWEzHy-c_jcjg-65" style="edgeStyle=none;shape=connector;rounded=0;orthogonalLoop=1;jettySize=auto;html=1;exitX=0.5;exitY=1;exitDx=0;exitDy=0;entryX=0.25;entryY=0;entryDx=0;entryDy=0;labelBackgroundColor=default;strokeColor=default;strokeWidth=2;align=center;verticalAlign=middle;fontFamily=Helvetica;fontSize=20;fontColor=default;endArrow=none;endFill=0;" edge="1" parent="1" source="Y_ASWiNpWEzHy-c_jcjg-40" target="Y_ASWiNpWEzHy-c_jcjg-1">
          <mxGeometry relative="1" as="geometry" />
        </mxCell>
        <mxCell id="Y_ASWiNpWEzHy-c_jcjg-40" value="试卷名称" style="ellipse;whiteSpace=wrap;html=1;fontFamily=Helvetica;fontSize=20;fontColor=default;" vertex="1" parent="1">
          <mxGeometry x="598" y="-60" width="84" height="66" as="geometry" />
        </mxCell>
        <mxCell id="Y_ASWiNpWEzHy-c_jcjg-66" style="edgeStyle=none;shape=connector;rounded=0;orthogonalLoop=1;jettySize=auto;html=1;exitX=0.5;exitY=1;exitDx=0;exitDy=0;labelBackgroundColor=default;strokeColor=default;strokeWidth=2;align=center;verticalAlign=middle;fontFamily=Helvetica;fontSize=20;fontColor=default;endArrow=none;endFill=0;" edge="1" parent="1" source="Y_ASWiNpWEzHy-c_jcjg-41" target="Y_ASWiNpWEzHy-c_jcjg-1">
          <mxGeometry relative="1" as="geometry" />
        </mxCell>
        <mxCell id="Y_ASWiNpWEzHy-c_jcjg-41" value="目标班级" style="ellipse;whiteSpace=wrap;html=1;fontFamily=Helvetica;fontSize=20;fontColor=default;" vertex="1" parent="1">
          <mxGeometry x="707" y="-60" width="84" height="66" as="geometry" />
        </mxCell>
        <mxCell id="Y_ASWiNpWEzHy-c_jcjg-70" style="edgeStyle=none;shape=connector;rounded=0;orthogonalLoop=1;jettySize=auto;html=1;exitX=0;exitY=1;exitDx=0;exitDy=0;entryX=1;entryY=0.75;entryDx=0;entryDy=0;labelBackgroundColor=default;strokeColor=default;strokeWidth=2;align=center;verticalAlign=middle;fontFamily=Helvetica;fontSize=20;fontColor=default;endArrow=none;endFill=0;" edge="1" parent="1" source="Y_ASWiNpWEzHy-c_jcjg-42" target="Y_ASWiNpWEzHy-c_jcjg-3">
          <mxGeometry relative="1" as="geometry" />
        </mxCell>
        <mxCell id="Y_ASWiNpWEzHy-c_jcjg-42" value="姓名" style="ellipse;whiteSpace=wrap;html=1;fontFamily=Helvetica;fontSize=20;fontColor=default;" vertex="1" parent="1">
          <mxGeometry x="1118" y="287" width="84" height="66" as="geometry" />
        </mxCell>
        <mxCell id="Y_ASWiNpWEzHy-c_jcjg-72" style="edgeStyle=none;shape=connector;rounded=0;orthogonalLoop=1;jettySize=auto;html=1;exitX=0.5;exitY=0;exitDx=0;exitDy=0;entryX=0.75;entryY=1;entryDx=0;entryDy=0;labelBackgroundColor=default;strokeColor=default;strokeWidth=2;align=center;verticalAlign=middle;fontFamily=Helvetica;fontSize=20;fontColor=default;endArrow=none;endFill=0;" edge="1" parent="1" source="Y_ASWiNpWEzHy-c_jcjg-43" target="Y_ASWiNpWEzHy-c_jcjg-3">
          <mxGeometry relative="1" as="geometry" />
        </mxCell>
        <mxCell id="Y_ASWiNpWEzHy-c_jcjg-43" value="班级" style="ellipse;whiteSpace=wrap;html=1;fontFamily=Helvetica;fontSize=20;fontColor=default;" vertex="1" parent="1">
          <mxGeometry x="1018" y="432" width="84" height="66" as="geometry" />
        </mxCell>
        <mxCell id="Y_ASWiNpWEzHy-c_jcjg-71" style="edgeStyle=none;shape=connector;rounded=0;orthogonalLoop=1;jettySize=auto;html=1;exitX=0;exitY=0.5;exitDx=0;exitDy=0;entryX=1;entryY=0.75;entryDx=0;entryDy=0;labelBackgroundColor=default;strokeColor=default;strokeWidth=2;align=center;verticalAlign=middle;fontFamily=Helvetica;fontSize=20;fontColor=default;endArrow=none;endFill=0;" edge="1" parent="1" source="Y_ASWiNpWEzHy-c_jcjg-44" target="Y_ASWiNpWEzHy-c_jcjg-3">
          <mxGeometry relative="1" as="geometry" />
        </mxCell>
        <mxCell id="Y_ASWiNpWEzHy-c_jcjg-44" value="密码" style="ellipse;whiteSpace=wrap;html=1;fontFamily=Helvetica;fontSize=20;fontColor=default;" vertex="1" parent="1">
          <mxGeometry x="1114" y="364" width="84" height="66" as="geometry" />
        </mxCell>
        <mxCell id="Y_ASWiNpWEzHy-c_jcjg-68" style="edgeStyle=none;shape=connector;rounded=0;orthogonalLoop=1;jettySize=auto;html=1;exitX=0.5;exitY=1;exitDx=0;exitDy=0;entryX=0.75;entryY=0;entryDx=0;entryDy=0;labelBackgroundColor=default;strokeColor=default;strokeWidth=2;align=center;verticalAlign=middle;fontFamily=Helvetica;fontSize=20;fontColor=default;endArrow=none;endFill=0;" edge="1" parent="1" source="Y_ASWiNpWEzHy-c_jcjg-45" target="Y_ASWiNpWEzHy-c_jcjg-3">
          <mxGeometry relative="1" as="geometry" />
        </mxCell>
        <mxCell id="Y_ASWiNpWEzHy-c_jcjg-45" value="学号" style="ellipse;whiteSpace=wrap;html=1;fontFamily=Helvetica;fontSize=20;fontColor=default;" vertex="1" parent="1">
          <mxGeometry x="1023" y="193" width="84" height="66" as="geometry" />
        </mxCell>
        <mxCell id="Y_ASWiNpWEzHy-c_jcjg-60" style="edgeStyle=none;shape=connector;rounded=0;orthogonalLoop=1;jettySize=auto;html=1;exitX=1;exitY=0.5;exitDx=0;exitDy=0;entryX=0;entryY=0.5;entryDx=0;entryDy=0;labelBackgroundColor=default;strokeColor=default;strokeWidth=2;align=center;verticalAlign=middle;fontFamily=Helvetica;fontSize=20;fontColor=default;endArrow=none;endFill=0;" edge="1" parent="1" source="Y_ASWiNpWEzHy-c_jcjg-46" target="Y_ASWiNpWEzHy-c_jcjg-5">
          <mxGeometry relative="1" as="geometry" />
        </mxCell>
        <mxCell id="Y_ASWiNpWEzHy-c_jcjg-46" value="试题内容" style="ellipse;whiteSpace=wrap;html=1;fontFamily=Helvetica;fontSize=20;fontColor=default;" vertex="1" parent="1">
          <mxGeometry x="48" y="127" width="84" height="66" as="geometry" />
        </mxCell>
        <mxCell id="Y_ASWiNpWEzHy-c_jcjg-62" style="edgeStyle=none;shape=connector;rounded=0;orthogonalLoop=1;jettySize=auto;html=1;exitX=1;exitY=1;exitDx=0;exitDy=0;entryX=0;entryY=0.25;entryDx=0;entryDy=0;labelBackgroundColor=default;strokeColor=default;strokeWidth=2;align=center;verticalAlign=middle;fontFamily=Helvetica;fontSize=20;fontColor=default;endArrow=none;endFill=0;" edge="1" parent="1" source="Y_ASWiNpWEzHy-c_jcjg-47" target="Y_ASWiNpWEzHy-c_jcjg-5">
          <mxGeometry relative="1" as="geometry" />
        </mxCell>
        <mxCell id="Y_ASWiNpWEzHy-c_jcjg-47" value="试题名称" style="ellipse;whiteSpace=wrap;html=1;fontFamily=Helvetica;fontSize=20;fontColor=default;" vertex="1" parent="1">
          <mxGeometry x="88" y="35.5" width="84" height="66" as="geometry" />
        </mxCell>
        <mxCell id="Y_ASWiNpWEzHy-c_jcjg-63" style="edgeStyle=none;shape=connector;rounded=0;orthogonalLoop=1;jettySize=auto;html=1;exitX=0;exitY=1;exitDx=0;exitDy=0;entryX=0.25;entryY=0;entryDx=0;entryDy=0;labelBackgroundColor=default;strokeColor=default;strokeWidth=2;align=center;verticalAlign=middle;fontFamily=Helvetica;fontSize=20;fontColor=default;endArrow=none;endFill=0;" edge="1" parent="1" source="Y_ASWiNpWEzHy-c_jcjg-48" target="Y_ASWiNpWEzHy-c_jcjg-5">
          <mxGeometry relative="1" as="geometry" />
        </mxCell>
        <mxCell id="Y_ASWiNpWEzHy-c_jcjg-48" value="试题ID" style="ellipse;whiteSpace=wrap;html=1;fontFamily=Helvetica;fontSize=20;fontColor=default;" vertex="1" parent="1">
          <mxGeometry x="201.5" y="11" width="84" height="66" as="geometry" />
        </mxCell>
        <mxCell id="Y_ASWiNpWEzHy-c_jcjg-59" style="edgeStyle=none;shape=connector;rounded=0;orthogonalLoop=1;jettySize=auto;html=1;exitX=1;exitY=0;exitDx=0;exitDy=0;entryX=0;entryY=1;entryDx=0;entryDy=0;labelBackgroundColor=default;strokeColor=default;strokeWidth=2;align=center;verticalAlign=middle;fontFamily=Helvetica;fontSize=20;fontColor=default;endArrow=none;endFill=0;" edge="1" parent="1" source="Y_ASWiNpWEzHy-c_jcjg-49" target="Y_ASWiNpWEzHy-c_jcjg-5">
          <mxGeometry relative="1" as="geometry" />
        </mxCell>
        <mxCell id="Y_ASWiNpWEzHy-c_jcjg-49" value="试题作者" style="ellipse;whiteSpace=wrap;html=1;fontFamily=Helvetica;fontSize=20;fontColor=default;" vertex="1" parent="1">
          <mxGeometry x="100" y="207" width="84" height="66" as="geometry" />
        </mxCell>
        <mxCell id="Y_ASWiNpWEzHy-c_jcjg-76" style="edgeStyle=none;shape=connector;rounded=0;orthogonalLoop=1;jettySize=auto;html=1;exitX=0;exitY=0;exitDx=0;exitDy=0;entryX=0.5;entryY=1;entryDx=0;entryDy=0;labelBackgroundColor=default;strokeColor=default;strokeWidth=2;align=center;verticalAlign=middle;fontFamily=Helvetica;fontSize=20;fontColor=default;endArrow=none;endFill=0;" edge="1" parent="1" source="Y_ASWiNpWEzHy-c_jcjg-50" target="Y_ASWiNpWEzHy-c_jcjg-4">
          <mxGeometry relative="1" as="geometry" />
        </mxCell>
        <mxCell id="Y_ASWiNpWEzHy-c_jcjg-50" value="学院" style="ellipse;whiteSpace=wrap;html=1;fontFamily=Helvetica;fontSize=20;fontColor=default;" vertex="1" parent="1">
          <mxGeometry x="327" y="531" width="84" height="66" as="geometry" />
        </mxCell>
        <mxCell id="Y_ASWiNpWEzHy-c_jcjg-79" style="edgeStyle=none;shape=connector;rounded=0;orthogonalLoop=1;jettySize=auto;html=1;exitX=1;exitY=0.5;exitDx=0;exitDy=0;labelBackgroundColor=default;strokeColor=default;strokeWidth=2;align=center;verticalAlign=middle;fontFamily=Helvetica;fontSize=20;fontColor=default;endArrow=none;endFill=0;" edge="1" parent="1" source="Y_ASWiNpWEzHy-c_jcjg-51" target="Y_ASWiNpWEzHy-c_jcjg-4">
          <mxGeometry relative="1" as="geometry" />
        </mxCell>
        <mxCell id="Y_ASWiNpWEzHy-c_jcjg-51" value="教师ID" style="ellipse;whiteSpace=wrap;html=1;fontFamily=Helvetica;fontSize=20;fontColor=default;" vertex="1" parent="1">
          <mxGeometry x="60" y="442" width="84" height="66" as="geometry" />
        </mxCell>
        <mxCell id="Y_ASWiNpWEzHy-c_jcjg-78" style="edgeStyle=none;shape=connector;rounded=0;orthogonalLoop=1;jettySize=auto;html=1;exitX=1;exitY=0;exitDx=0;exitDy=0;entryX=0.25;entryY=1;entryDx=0;entryDy=0;labelBackgroundColor=default;strokeColor=default;strokeWidth=2;align=center;verticalAlign=middle;fontFamily=Helvetica;fontSize=20;fontColor=default;endArrow=none;endFill=0;" edge="1" parent="1" source="Y_ASWiNpWEzHy-c_jcjg-52" target="Y_ASWiNpWEzHy-c_jcjg-4">
          <mxGeometry relative="1" as="geometry" />
        </mxCell>
        <mxCell id="Y_ASWiNpWEzHy-c_jcjg-52" value="教师姓名" style="ellipse;whiteSpace=wrap;html=1;fontFamily=Helvetica;fontSize=20;fontColor=default;" vertex="1" parent="1">
          <mxGeometry x="101" y="552" width="84" height="66" as="geometry" />
        </mxCell>
        <mxCell id="Y_ASWiNpWEzHy-c_jcjg-77" style="edgeStyle=none;shape=connector;rounded=0;orthogonalLoop=1;jettySize=auto;html=1;exitX=0.5;exitY=0;exitDx=0;exitDy=0;labelBackgroundColor=default;strokeColor=default;strokeWidth=2;align=center;verticalAlign=middle;fontFamily=Helvetica;fontSize=20;fontColor=default;endArrow=none;endFill=0;" edge="1" parent="1" source="Y_ASWiNpWEzHy-c_jcjg-53" target="Y_ASWiNpWEzHy-c_jcjg-4">
          <mxGeometry relative="1" as="geometry" />
        </mxCell>
        <mxCell id="Y_ASWiNpWEzHy-c_jcjg-53" value="教师手机号" style="ellipse;whiteSpace=wrap;html=1;fontFamily=Helvetica;fontSize=20;fontColor=default;" vertex="1" parent="1">
          <mxGeometry x="210" y="552" width="84" height="66" as="geometry" />
        </mxCell>
        <mxCell id="Y_ASWiNpWEzHy-c_jcjg-75" style="edgeStyle=none;shape=connector;rounded=0;orthogonalLoop=1;jettySize=auto;html=1;exitX=1;exitY=0;exitDx=0;exitDy=0;entryX=0.25;entryY=1;entryDx=0;entryDy=0;labelBackgroundColor=default;strokeColor=default;strokeWidth=2;align=center;verticalAlign=middle;fontFamily=Helvetica;fontSize=20;fontColor=default;endArrow=none;endFill=0;" edge="1" parent="1" source="Y_ASWiNpWEzHy-c_jcjg-55" target="Y_ASWiNpWEzHy-c_jcjg-2">
          <mxGeometry relative="1" as="geometry" />
        </mxCell>
        <mxCell id="Y_ASWiNpWEzHy-c_jcjg-55" value="班级ID" style="ellipse;whiteSpace=wrap;html=1;fontFamily=Helvetica;fontSize=20;fontColor=default;" vertex="1" parent="1">
          <mxGeometry x="534" y="574" width="84" height="66" as="geometry" />
        </mxCell>
        <mxCell id="Y_ASWiNpWEzHy-c_jcjg-74" style="edgeStyle=none;shape=connector;rounded=0;orthogonalLoop=1;jettySize=auto;html=1;exitX=0.5;exitY=0;exitDx=0;exitDy=0;entryX=0.5;entryY=1;entryDx=0;entryDy=0;labelBackgroundColor=default;strokeColor=default;strokeWidth=2;align=center;verticalAlign=middle;fontFamily=Helvetica;fontSize=20;fontColor=default;endArrow=none;endFill=0;" edge="1" parent="1" source="Y_ASWiNpWEzHy-c_jcjg-56" target="Y_ASWiNpWEzHy-c_jcjg-2">
          <mxGeometry relative="1" as="geometry" />
        </mxCell>
        <mxCell id="Y_ASWiNpWEzHy-c_jcjg-56" value="学院" style="ellipse;whiteSpace=wrap;html=1;fontFamily=Helvetica;fontSize=20;fontColor=default;" vertex="1" parent="1">
          <mxGeometry x="639" y="599" width="84" height="70" as="geometry" />
        </mxCell>
        <mxCell id="Y_ASWiNpWEzHy-c_jcjg-73" style="edgeStyle=none;shape=connector;rounded=0;orthogonalLoop=1;jettySize=auto;html=1;exitX=0;exitY=0;exitDx=0;exitDy=0;entryX=0.75;entryY=1;entryDx=0;entryDy=0;labelBackgroundColor=default;strokeColor=default;strokeWidth=2;align=center;verticalAlign=middle;fontFamily=Helvetica;fontSize=20;fontColor=default;endArrow=none;endFill=0;" edge="1" parent="1" source="Y_ASWiNpWEzHy-c_jcjg-57" target="Y_ASWiNpWEzHy-c_jcjg-2">
          <mxGeometry relative="1" as="geometry" />
        </mxCell>
        <mxCell id="Y_ASWiNpWEzHy-c_jcjg-57" value="班级名称" style="ellipse;whiteSpace=wrap;html=1;fontFamily=Helvetica;fontSize=20;fontColor=default;" vertex="1" parent="1">
          <mxGeometry x="752" y="577" width="84" height="66" as="geometry" />
        </mxCell>
        <mxCell id="Y_ASWiNpWEzHy-c_jcjg-69" style="edgeStyle=none;shape=connector;rounded=0;orthogonalLoop=1;jettySize=auto;html=1;exitX=0;exitY=1;exitDx=0;exitDy=0;entryX=1;entryY=0.25;entryDx=0;entryDy=0;labelBackgroundColor=default;strokeColor=default;strokeWidth=2;align=center;verticalAlign=middle;fontFamily=Helvetica;fontSize=20;fontColor=default;endArrow=none;endFill=0;" edge="1" parent="1" source="Y_ASWiNpWEzHy-c_jcjg-58" target="Y_ASWiNpWEzHy-c_jcjg-3">
          <mxGeometry relative="1" as="geometry" />
        </mxCell>
        <mxCell id="Y_ASWiNpWEzHy-c_jcjg-58" value="手机号" style="ellipse;whiteSpace=wrap;html=1;fontFamily=Helvetica;fontSize=20;fontColor=default;" vertex="1" parent="1">
          <mxGeometry x="1138" y="201" width="84" height="66" as="geometry" />
        </mxCell>
        <mxCell id="Y_ASWiNpWEzHy-c_jcjg-67" style="edgeStyle=none;shape=connector;rounded=0;orthogonalLoop=1;jettySize=auto;html=1;exitX=0;exitY=1;exitDx=0;exitDy=0;entryX=0.877;entryY=0.025;entryDx=0;entryDy=0;entryPerimeter=0;labelBackgroundColor=default;strokeColor=default;strokeWidth=2;align=center;verticalAlign=middle;fontFamily=Helvetica;fontSize=20;fontColor=default;endArrow=none;endFill=0;" edge="1" parent="1" source="Y_ASWiNpWEzHy-c_jcjg-38" target="Y_ASWiNpWEzHy-c_jcjg-1">
          <mxGeometry relative="1" as="geometry" />
        </mxCell>
      </root>
    </mxGraphModel>
  </diagram>
</mxfile>
